<?xml version="1.0" standalone="no"?>
<!DOCTYPE svg PUBLIC "-//W3C//DTD SVG 1.1//EN" "http://www.w3.org/Graphics/SVG/1.1/DTD/svg11.dtd" >
<svg xmlns="http://www.w3.org/2000/svg">
<metadata>Generated by IcoMoon</metadata>
<defs>
<font id="icomoon" horiz-adv-x="1024">
<font-face units-per-em="1024" ascent="960" descent="-64" />
<missing-glyph horiz-adv-x="1024" />
<glyph unicode="&#x20;" horiz-adv-x="512" d="" />
<glyph unicode="&#xe900;" glyph-name="crown" horiz-adv-x="1538" d="M580.386 470.271c0 0-74.335 106.18-115.561 188.31 21.533 6.819 37.145 26.955 37.145 50.75 0 29.395-23.828 53.234-53.234 53.234-29.384 0-53.245-23.839-53.245-53.234 0-28.84 22.964-52.258 51.571-53.145-7.141-58.257-25.237-179.195-58.335-238.195 0.011 0 95.835-108.398 191.658 52.281zM1143.663 417.99c-33.087 59-51.194 179.938-58.324 238.195 28.63 0.887 51.538 24.305 51.538 53.145 0 29.395-23.817 53.234-53.223 53.234-29.395 0-53.234-23.839-53.234-53.234 0-23.795 15.623-43.931 37.156-50.75-41.226-82.13-115.538-188.31-115.538-188.31 95.835-160.678 191.625-52.281 191.625-52.281zM1459.187 762.565c-40.594 0-73.548-32.954-73.548-73.559 0-29.483 17.386-54.853 42.445-66.584-74.146-78.593-262.179-267.557-355.918-267.557-165.235 0-257.267 314.349-290.964 459.581 33.442 6.919 58.579 36.524 58.579 72.017 0 40.605-32.943 73.536-73.57 73.536-40.605 0-73.57-32.932-73.57-73.548 0-35.482 25.148-65.087 58.579-72.017-33.708-145.232-125.739-459.581-290.986-459.581-93.717 0-281.749 188.964-355.907 267.557 25.048 11.731 42.445 37.112 42.445 66.584 0 40.616-32.943 73.559-73.559 73.559s-73.559-32.954-73.559-73.559c0-40.616 32.943-73.559 73.559-73.559 4.457 0 8.804 0.466 13.040 1.231l225.067-680.678h909.792l225.056 680.678c4.225-0.765 8.582-1.231 13.029-1.231 40.638 0 73.57 32.932 73.57 73.559-0.011 40.616-32.943 73.57-73.581 73.57z" />
<glyph unicode="&#xe901;" glyph-name="message" horiz-adv-x="1019" d="M240.128-64v265.25h-160.995c-43.646 0-79.133 35.513-79.133 79.133v597.68c0 43.621 35.487 79.133 79.133 79.133h861.159c43.604 0 79.091-35.513 79.091-79.133v-597.672c0-43.621-35.487-79.133-79.091-79.133h-451.609l-248.555-265.258zM79.133 907.348c-16.141 0-29.327-13.144-29.327-29.285v-597.672c0-16.141 13.186-29.285 29.327-29.285h210.801v-189.037l177.169 189.037h473.189c16.141 0 29.285 13.144 29.285 29.285v597.672c0 16.141-13.144 29.285-29.285 29.285h-861.159z" />
<glyph unicode="&#xe902;" glyph-name="good-light" horiz-adv-x="1035" d="M131.348-64h-131.348v675.664h131.348c72.4 0 131.309-58.925 131.309-131.325v-413.015c0-72.4-58.909-131.325-131.309-131.325zM49.479-14.49h81.869c45.128 0 81.83 36.702 81.83 81.806v413.022c0 45.105-36.702 81.806-81.83 81.806h-81.869v-576.635zM947.030-64h-322.327c-28.408 0-63.213 17.645-103.505 38.073-39.32 19.966-83.923 42.565-114.745 42.565h-76.437v267.666c-3.786 111.32-0.039 221.715 0 222.828l0.847 23.893h75.582c26.997 0 54.551 4.429 75.669 12.166 61.606 22.545 99.797 51.533 99.797 126.229v208.020c0 43.898 46.696 74.556 113.617 74.556 67.203 0 112.331-29.952 112.331-74.556v-320.775h162.374c18.852 0 63.056 0 63.056-264.162 0-83.845-5.683-167.101-15.552-228.448-14.22-88.556-36.020-128.056-70.707-128.056zM379.496 66.157h26.958c42.667 0 90.696-24.355 137.149-47.927 30.258-15.333 64.506-32.719 81.101-32.719h318.736c4.429 5.519 20.389 31.685 31.387 130.886 18.171 164.146 5.762 354.513-12.37 390.76h-204.069v370.285c0 13.577-28.808 25.037-62.852 25.037-36.702 0-64.146-13.216-64.146-25.037v-208.020c0-109.548-66.842-148.79-132.273-172.722-36.059-13.216-73.529-15.192-92.671-15.192h-27.593c-0.886-38.199-2.015-116.862 0.643-196.379v-218.971z" />
<glyph unicode="&#xe903;" glyph-name="intransit" horiz-adv-x="1221" d="M1220.797 621.375l-391.55 338.625v-272.749h-454.343c-206.991 0-375.42-168.413-375.42-375.42s168.429-375.42 375.42-375.42h188.594v131.761h-188.586c-134.377 0-243.659 109.306-243.659 243.659s109.282 243.659 243.659 243.659h454.343v-272.749l391.542 338.633zM881.919 844.75l258.33-223.375-258.33-223.399v446.773z" />
<glyph unicode="&#xe904;" glyph-name="star" horiz-adv-x="1082" d="M875.855-66.148l-333.362 175.253-333.402-175.253 63.713 371.195-269.737 262.904 372.725 54.145 166.701 337.761 166.661-337.761 372.725-54.145-269.689-262.904 63.665-371.195zM107.601 533.978l217.462-211.945-51.355-299.255 268.785 141.281 268.746-141.281-51.316 299.255 217.422 211.937-300.499 43.659-134.353 272.265-134.393-272.265-300.499-43.651z" />
<glyph unicode="&#xe905;" glyph-name="report" horiz-adv-x="1192" d="M1086.158 960c-56.813 0-103.003-46.209-103.003-103.003v-8.88l-906.322-130.303c-43.795-6.284-76.823-44.37-76.823-88.605v-273.632c0-44.236 33.028-82.322 76.823-88.605l149.882-21.553v-217.26c0-49.408 40.165-89.592 89.573-89.592h254.216c49.408 0 89.573 40.184 89.573 89.592v154.959l323.089-46.448v-2.855c0-56.794 46.19-102.983 103.003-102.983 56.765 0 102.955 46.19 102.955 102.983v723.182c-0.010 56.794-46.19 103.003-102.964 103.003zM603.58 28.169c0-18.219-14.857-33.057-33.076-33.057h-254.216c-18.219 0-33.076 14.838-33.076 33.057v209.137l320.368-46.075v-163.063zM598.167 249.127l-513.327 73.787c-16.15 2.328-28.335 16.351-28.335 32.664v273.632c0 16.313 12.194 30.337 28.335 32.664l898.314 129.134v-597.229l-384.988 55.347zM1132.625 133.815c0-25.605-20.844-46.439-46.468-46.439s-46.506 20.844-46.506 46.439v723.182c0 25.624 20.882 46.468 46.506 46.468s46.468-20.844 46.468-46.468v-723.182z" />
<glyph unicode="&#xe906;" glyph-name="light" horiz-adv-x="953" d="M195.386 797.832c0-16.985-13.769-30.755-30.755-30.755s-30.755 13.769-30.755 30.755c0 16.985 13.769 30.755 30.755 30.755s30.755-13.769 30.755-30.755zM822.851 170.367c0-16.985-13.769-30.755-30.755-30.755s-30.755 13.769-30.755 30.755c0 16.985 13.769 30.755 30.755 30.755s30.755-13.769 30.755-30.755zM195.386 170.367c0-16.985-13.769-30.755-30.755-30.755s-30.755 13.769-30.755 30.755c0 16.985 13.769 30.755 30.755 30.755s30.755-13.769 30.755-30.755zM822.851 797.832c0-16.985-13.769-30.755-30.755-30.755s-30.755 13.769-30.755 30.755c0 16.985 13.769 30.755 30.755 30.755s30.755-13.769 30.755-30.755zM65.433 484.096c0-16.985-13.769-30.755-30.755-30.755s-30.755 13.769-30.755 30.755c0 16.985 13.769 30.755 30.755 30.755s30.755-13.769 30.755-30.755zM952.804 484.096c0-16.985-13.769-30.755-30.755-30.755s-30.755 13.769-30.755 30.755c0 16.985 13.769 30.755 30.755 30.755s30.755-13.769 30.755-30.755zM509.122 927.785c0-16.985-13.769-30.755-30.755-30.755s-30.755 13.769-30.755 30.755c0 16.985 13.769 30.755 30.755 30.755s30.755-13.769 30.755-30.755zM476.999 761.246c-151.957 0-275.584-123.627-275.584-278.313 0-91.823 47.368-178.803 124.38-229.752v-161.339c0-84.129 68.444-152.565 152.565-152.565 84.144 0 152.58 68.444 152.58 152.565v161.339c76.997 50.941 124.365 138.028 124.365 232.482 0.008 151.957-123.627 275.584-278.306 275.584zM478.36-19.902c-61.616 0-111.744 50.128-111.744 111.744v1.84h223.51v-1.84c-0.008-61.616-50.135-111.744-111.766-111.744zM599.995 281.905l-9.876-5.953v-141.449h-223.502v141.449l-9.876 5.953c-70.633 42.54-114.503 119.567-114.503 203.757 0 129.444 105.319 234.762 237.492 234.762 129.444 0 234.762-105.319 234.762-237.492 0-81.46-43.878-158.488-114.496-201.027z" />
<glyph unicode="&#xe907;" glyph-name="page" horiz-adv-x="818" d="M558.499 960.798h-471.253c-48.107 0-87.246-39.139-87.246-87.254v-843.646c0-48.107 39.139-87.246 87.246-87.246h643.738c48.107 0 87.246 39.139 87.246 87.246v671.145l-259.731 259.755zM571.456 885.276l171.261-171.276h-158.304c-7.142 0-12.957 5.815-12.957 12.957v158.319zM730.984-13.097h-643.738c-23.725 0-43.026 19.269-43.026 42.995v843.646c0 23.725 19.301 42.995 43.026 42.995h439.982v-189.582c0-31.531 25.653-57.216 57.176-57.216h189.598v-639.851c0.008-23.717-19.293-42.987-43.019-42.987z" />
<glyph unicode="&#xe908;" glyph-name="message-plus" horiz-adv-x="1016" d="M1017.233 116.403h-136.427v136.395h-44.127v-136.395h-136.435v-44.166h136.435v-136.427h44.127v136.427h136.427zM781.586 252.273h-289.785l-199.408-220.148v220.148h-205.325c-23.674 0-42.934 19.228-42.934 42.902v574.472c0 23.674 19.26 42.934 42.934 42.934h841.824c23.674 0 42.934-19.26 42.934-42.934v-639.457h44.127v639.457c0 48.007-39.053 87.1-87.068 87.1h-841.816c-48.015-0.008-87.068-39.093-87.068-87.1v-574.472c0-48.007 39.053-87.060 87.060-87.060h161.206v-207.217c0-13.36 8.056-25.129 20.525-29.94 3.833-1.455 7.777-2.187 11.674-2.187 8.851 0 17.439 3.682 23.705 10.576l207.202 228.768h270.23v44.158z" />
<glyph unicode="&#xe909;" glyph-name="arrow-right" horiz-adv-x="1259" d="M158.28-64l-161.684 161.684 350.325 350.316-350.325 350.325 161.684 161.675 511.991-512zM743.019-64l-161.675 161.684 350.316 350.316-350.316 350.325 161.675 161.675 512-512z" />
<glyph unicode="&#xe90a;" glyph-name="voice" horiz-adv-x="723" d="M624.611 543.195c-54.095-54.095-54.095-141.806 0-195.901l97.95 97.95-97.95 97.95zM519.654 648.151l-104.949 104.949c-169.741-169.741-169.748-445.934 0.007-615.697l104.956 104.956c-111.866 111.881-111.889 293.917-0.015 405.791zM320.254 847.552l-104.949 104.949c-279.699-279.699-279.699-734.783 0.007-1014.497l104.949 104.949c-221.818 221.825-221.832 582.774-0.007 804.599z" />
<glyph unicode="&#xe90b;" glyph-name="keyboard" horiz-adv-x="1070" d="M973.319 948.812h-876.611c-48.893 0-88.659-39.766-88.659-88.645v-490.315c0-48.871 39.766-88.637 88.667-88.637h876.611c48.871 0 88.637 39.766 88.637 88.637v490.315c-0.007 48.879-39.773 88.645-88.645 88.645zM1034.848 369.86c0-33.917-27.611-61.528-61.528-61.528h-876.611c-33.94 0-61.551 27.611-61.551 61.528v490.308c0 33.917 27.611 61.528 61.551 61.528h876.611c33.917 0 61.528-27.611 61.528-61.528v-490.308zM501.525 724.498h66.978c28.578 0 51.965 23.38 51.965 51.958s-23.38 51.965-51.965 51.965h-66.978c-28.578 0-51.965-23.38-51.965-51.965 0-28.578 23.387-51.958 51.965-51.958zM501.525 561.453h66.978c28.578 0 51.965 23.38 51.965 51.965 0 28.578-23.38 51.958-51.965 51.958h-66.978c-28.578 0-51.965-23.38-51.965-51.958 0-28.586 23.387-51.965 51.965-51.965zM237.932 724.498h66.978c28.578 0 51.965 23.38 51.965 51.958s-23.38 51.965-51.965 51.965h-66.978c-28.578 0-51.965-23.38-51.965-51.965 0-28.578 23.387-51.958 51.965-51.958zM237.932 561.453h66.978c28.578 0 51.965 23.38 51.965 51.965 0 28.578-23.38 51.958-51.965 51.958h-66.978c-28.578 0-51.965-23.38-51.965-51.958 0-28.586 23.387-51.965 51.965-51.965zM832.096 505.537h-594.165c-28.578 0-51.965-23.38-51.965-51.965 0-28.578 23.38-51.958 51.965-51.958h594.165c28.578 0 51.965 23.38 51.965 51.958-0.007 28.578-23.387 51.965-51.965 51.965zM832.096 665.369h-66.978c-28.578 0-51.965-23.38-51.965-51.958s23.38-51.965 51.965-51.965h66.978c28.578 0 51.965 23.38 51.965 51.965-0.007 28.578-23.387 51.958-51.965 51.958zM832.096 828.414h-66.978c-28.578 0-51.965-23.38-51.965-51.965 0-28.578 23.38-51.958 51.965-51.958h66.978c28.578 0 51.965 23.38 51.965 51.958-0.007 28.586-23.387 51.965-51.965 51.965zM535.007-18.555l-178.87 178.892-19.163-19.17 198.033-198.055 198.055 198.055-19.17 19.17z" />
<glyph unicode="&#xe90c;" glyph-name="emoji" horiz-adv-x="1023" d="M516.455-57.278c-278.608 0-505.282 226.674-505.282 505.282s226.674 505.282 505.282 505.282 505.282-226.674 505.282-505.282-226.682-505.282-505.282-505.282zM516.455 927.037c-264.149 0-479.033-214.884-479.033-479.033s214.884-479.033 479.033-479.033 479.033 214.884 479.033 479.033-214.884 479.033-479.033 479.033zM386.294 549.713c0-42.884-34.764-77.648-77.648-77.648s-77.648 34.764-77.648 77.648c0 42.884 34.764 77.648 77.648 77.648s77.648-34.764 77.648-77.648zM801.897 549.713c0-42.884-34.764-77.648-77.648-77.648s-77.648 34.764-77.648 77.648c0 42.884 34.764 77.648 77.648 77.648s77.648-34.764 77.648-77.648zM404.896 192.615c-68.746 0-124.679 55.934-124.679 124.657h26.249c0-54.264 44.166-98.408 98.431-98.408s98.431 44.144 98.431 98.408h26.249c0-68.723-55.934-124.657-124.679-124.657zM628.006 192.615c-68.746 0-124.679 55.934-124.679 124.657h26.249c0-54.264 44.166-98.408 98.431-98.408s98.408 44.144 98.408 98.408h26.249c0-68.723-55.934-124.657-124.657-124.657z" />
<glyph unicode="&#xe90d;" glyph-name="location" horiz-adv-x="848" d="M848.226 535.887c0 234.234-189.879 424.113-424.113 424.113s-424.113-189.879-424.113-424.113c0-106.736 39.726-203.997 104.817-278.543h-0.487l5.65-5.677c9.029-9.969 18.498-19.491 28.426-28.561l285.72-287.106 285.436 286.849c10.144 9.259 19.823 18.978 29.028 29.176l5.292 5.319h-0.46c65.084 74.546 104.803 171.807 104.803 278.543zM424.113 316.839c-120.976 0-219.048 98.072-219.048 219.048s98.072 219.048 219.048 219.048 219.048-98.072 219.048-219.048-98.072-219.048-219.048-219.048z" />
<glyph unicode="&#xe90e;" glyph-name="movie" horiz-adv-x="1022" d="M948.494 960h-872.909c-41.545 0-75.542-33.997-75.542-75.549v-872.902c0-41.552 33.997-75.549 75.549-75.549h872.902c41.552 0 75.549 33.997 75.549 75.549v872.902c0 41.552-33.997 75.549-75.549 75.549zM191.515-1.001h-128.282v128.289h128.282v-128.289zM191.515 191.429h-128.282v128.289h128.282v-128.289zM191.515 383.859h-128.282v128.282h128.282v-128.282zM191.515 576.289h-128.282v128.282h128.282v-128.282zM191.515 768.712h-128.282v128.289h128.282v-128.289zM387.762 200.46v495.087c0 12.742 15.083 19.467 24.561 10.961l268.724-241.212c10.287-9.23 10.287-25.349 0-34.585l-268.724-241.212c-9.478-8.513-24.561-1.781-24.561 10.961zM960.845-1.001h-128.282v128.289h128.282v-128.289zM960.845 191.429h-128.282v128.289h128.282v-128.289zM960.845 383.859h-128.282v128.282h128.282v-128.282zM960.845 576.289h-128.282v128.282h128.282v-128.282zM960.845 768.712h-128.282v128.289h128.282v-128.289z" />
<glyph unicode="&#xe90f;" glyph-name="good-dark" horiz-adv-x="1096" d="M203.419 622.431h-199.936v-672.193h199.936c42.907 0 78.011 35.103 78.011 78.011v516.172c0.007 42.907-35.103 78.011-78.011 78.011zM148.132 1.297c-38.374 0-69.49 31.109-69.49 69.49 0 38.374 31.109 69.49 69.49 69.49s69.49-31.109 69.49-69.49c0-38.381-31.116-69.49-69.49-69.49zM1023.113 551.529h-202.788c0 0 0 283.622 0 348.856s-113.455 96.435-136.852-9.925c-23.398-106.36-101.394-338.931-187.904-338.931h-151.736v-545.975h170.182c16.7-0.156 69.88-3.015 107.765-32.613 45.376-35.451 129.048-35.451 209.882-35.451s163.087 8.506 191.444 68.071c28.371 59.551 148.913 545.968 0.007 545.968z" />
<glyph unicode="&#xe910;" glyph-name="pencil" horiz-adv-x="1019" d="M311.081 70.28l-181.063 181.063 451.307 451.307 181.063-181.063-451.307-451.307zM637.957 759.292l194.692 194.692 181.063-181.063-194.692-194.692-181.063 181.063zM0.298 121.631l-0.298-181.367 181.367 0.298 62.154 62.161-181.062 181.062z" />
<glyph unicode="&#xe911;" glyph-name="paste" horiz-adv-x="887" d="M627.277 836.968l-183.985 120.774-183.985-120.774v-71.675h367.97zM797.506 836.968h-102.536v-139.36h-503.348v139.36h-102.543c-48.992 0-89.079-40.087-89.079-89.079v-721.699c0-48.992 40.087-89.079 89.079-89.079h708.427c48.992 0 89.079 40.087 89.079 89.079v721.699c0 48.992-40.087 89.079-89.079 89.079zM188.466 452.071h191.807v-67.692h-191.807v67.692zM380.273 129.553h-191.807v67.685h191.807v-67.685zM698.119 256.966h-509.653v67.685h509.653v-67.685zM698.119 511.792h-509.653v67.685h509.653v-67.685z" />
<glyph unicode="&#xe912;" glyph-name="draw" horiz-adv-x="920" d="M910.854 646.411c-49.274 239.415-352.525 435.117-644.618 219.573s-302.474-463.47-225.616-473.391c62.447-8.058 62.447 38.274 141.010 80.577s139.319-15.734 149.068-124.895c7.561-84.743-75.8-198.098-134.37-135.658-22.223 23.691-66.268 85.685-133.017 47.9-92.506-52.368-72.894-395.778 344.094-311.172s551.947 461.384 503.449 697.065zM167.529 563.819c-52.404 35.368 22.159 211.515 126.909 161.154s-46.332-215.544-126.909-161.154zM738.282 768.989c37.267 0 67.483-30.216 67.483-67.483s-30.216-67.483-67.483-67.483c-37.267 0-67.483 30.216-67.483 67.483 0 37.274 30.216 67.483 67.483 67.483zM592.984 135.954c-37.267 0-67.483 30.216-67.483 67.483s30.216 67.483 67.483 67.483c37.267 0 67.483-30.216 67.483-67.483 0-37.274-30.209-67.483-67.483-67.483zM717.771 270.921c-37.267 0-67.483 30.216-67.483 67.483s30.216 67.483 67.483 67.483c37.267 0 67.483-30.216 67.483-67.483 0-37.274-30.216-67.483-67.483-67.483zM785.254 454.515c-37.267 0-67.483 30.216-67.483 67.483s30.216 67.483 67.483 67.483c37.267 0 67.483-30.216 67.483-67.483s-30.216-67.483-67.483-67.483z" />
<glyph unicode="&#xe913;" glyph-name="shop" horiz-adv-x="1229" d="M649.73 17.833c0-44.434-36.021-80.455-80.455-80.455s-80.455 36.021-80.455 80.455c0 44.434 36.021 80.455 80.455 80.455s80.455-36.021 80.455-80.455zM941.207 98.288c-44.476 0-80.464-35.997-80.464-80.455 0-44.448 35.997-80.455 80.464-80.455 44.419 0 80.445 36.007 80.445 80.455-0.010 44.457-36.026 80.455-80.445 80.455zM1221.962 631.328c-6.977 9.981-18.365 15.922-30.494 15.922h-764.214c-3.897 0-7.604-0.77-11.169-1.901l-36.34 171.736c-3.65 17.167-18.792 29.429-36.34 29.429h-306.287c-20.503 0.010-37.119-16.606-37.119-37.11 0-20.494 16.616-37.129 37.119-37.129h276.202l122.44-578.372c0-0.057 0.029-0.057 0.029-0.114l0.038-0.133c0.485-2.272 1.188-4.449 2.034-6.54 0.238-0.599 0.599-1.15 0.884-1.73 0.713-1.502 1.454-2.975 2.348-4.316 0.418-0.656 0.922-1.255 1.416-1.844 0.884-1.217 1.768-2.367 2.814-3.403 0.58-0.646 1.217-1.217 1.835-1.797 1.046-0.922 2.072-1.797 3.213-2.614 0.722-0.542 1.483-1.027 2.234-1.521 1.15-0.741 2.376-1.35 3.622-1.958 0.789-0.371 1.587-0.77 2.405-1.093 1.454-0.57 2.947-0.979 4.458-1.378 0.675-0.171 1.35-0.409 2.034-0.551 2.281-0.418 4.62-0.713 7.015-0.713 0.029 0 0.076 0.029 0.105 0.029h567.612c15.532 0 29.41 9.639 34.809 24.201l151.632 408.794c4.163 11.407 2.585 24.125-4.335 34.106zM1014.029 238.456h-511.777l-70.826 334.546h706.687l-124.085-334.546zM572.165 662.763h496.815l-131.423 297.237-420.6-169.559z" />
</font>
</defs>
</svg>
